# Blender v3.6.4 OBJ File: 'hise_mars.blend'
# www.blender.org
o rock1
v -32.371693 -2.492168 -18.950672
v -30.646393 -0.838263 -11.976151
v -27.053782 -0.088824 -6.330633
v -23.450199 0.241999 -0.971927
v -20.769695 0.446210 3.490300
v -17.676508 0.823368 8.739063
v -15.726492 1.397233 13.678925
v -13.488047 1.130243 18.616045
v -12.336497 0.406631 23.043530
v -9.359264 0.087250 28.579462
v -4.075731 -1.535548 39.496811
v -32.041855 -2.596953 -18.725441
v -28.795914 -1.098369 -12.267546
v -25.169186 -0.156570 -6.958579
v -20.867222 0.272283 -2.080995
v -17.465021 1.858369 3.122022
v -15.401019 2.286186 8.575083
v -14.141710 1.484278 13.247765
v -10.155763 2.052565 17.024521
v -9.308531 1.200889 20.974922
v -4.758272 -0.317831 26.924984
v -1.465868 -3.040592 38.422764
v -29.666836 -2.009537 -18.649410
v -24.789749 0.471936 -13.150805
v -20.707243 1.531437 -8.375675
v -16.133734 2.383132 -4.165318
v -10.602330 4.261867 0.197893
v -10.561560 4.117161 7.445545
v -8.591139 3.314899 11.998728
v -6.270718 2.543751 15.919653
v -4.555866 0.668761 19.110394
v 1.408269 -0.670674 25.133268
v 3.820928 -4.485352 35.757236
v -26.788925 -2.809469 -18.842119
v -21.999483 -0.602075 -13.601110
v -17.534515 0.415982 -8.784081
v -14.699792 2.090120 -5.013759
v -6.503865 3.499345 -2.567828
v -6.274569 2.967655 4.297116
v -2.906969 1.407287 6.525358
v -1.262759 0.504987 14.322144
v 0.995033 -0.649879 18.416138
v 4.867786 -2.671320 25.884670
v 7.406173 -6.450534 34.759552
v -23.260395 -3.137791 -19.243032
v -19.403625 -1.170905 -13.955669
v -15.544186 0.347639 -9.611559
v -12.471860 1.726285 -6.596364
v -5.914194 2.041820 -3.924644
v -3.924705 1.582868 1.348774
v 0.539659 0.652560 5.886378
v 2.988445 -0.047741 13.072968
v 4.995075 -1.505984 17.421692
v 7.463294 -4.114911 25.274761
v 10.649695 -7.038971 33.085693
v -21.151215 -3.337515 -19.385319
v -17.578785 -1.331227 -14.394034
v -14.342276 -0.410741 -10.371969
v -10.608031 0.215433 -7.249468
v -5.443033 -0.000793 -4.020294
v -2.410517 -0.552706 0.086582
v 2.141029 -0.912375 4.630483
v 4.337380 -1.646398 10.666916
v 6.450811 -2.987049 16.263079
v 8.411135 -5.307861 23.937174
v 10.955132 -8.173177 32.401394
v -19.852270 -3.774187 -19.407053
v -16.700706 -2.479720 -14.593181
v -13.178480 -1.898582 -10.748322
v -9.616691 -1.419845 -7.362760
v -4.627632 -1.990223 -3.981725
v -1.362370 -2.473845 -0.141866
v 2.648897 -2.645214 3.807247
v 5.010592 -3.123071 8.860656
v 7.387197 -4.524356 14.048384
v 9.863756 -6.013961 21.182703
v 11.358616 -8.753242 30.370054
v -18.647217 -4.164777 -19.344730
v -15.496977 -3.475111 -14.835024
v -12.435303 -3.320994 -11.021967
v -8.787599 -3.014983 -7.581195
v -4.734262 -3.796929 -4.036122
v -1.271459 -4.256766 -0.210809
v 2.537282 -4.609228 3.591601
v 5.183417 -5.096872 8.035375
v 8.156652 -6.060209 12.105854
v 10.553577 -7.004792 18.733368
v 12.089464 -8.982747 27.266331
v -17.486757 -4.553030 -19.365259
v -14.361447 -4.599657 -15.211429
v -11.702229 -4.598465 -11.429164
v -8.128663 -4.803941 -7.889832
v -4.766762 -5.504491 -4.138898
v -1.262634 -6.012212 -0.327385
v 2.284313 -6.597571 3.464724
v 5.258758 -7.205019 7.413716
v 8.333807 -7.877646 11.220586
v 10.778012 -8.496901 17.009308
v 12.906155 -9.678759 23.843540
v -16.680874 -5.286831 -19.579514
v -13.696815 -5.867573 -15.683558
v -11.102692 -6.140232 -11.862750
v -7.351847 -6.699309 -8.169100
v -4.634765 -7.392083 -4.294680
v -1.285936 -7.950744 -0.473382
v 2.031355 -8.585916 3.337845
v 5.074562 -9.218457 7.183200
v 8.117770 -9.851000 11.028557
v 10.764791 -10.449959 16.118975
v 13.328878 -11.103543 21.481142
v -16.500147 -6.795949 -19.853500
v -13.480803 -7.449455 -15.998656
v -10.607707 -8.040234 -12.143573
v -7.351231 -8.676631 -8.325102
v -4.408451 -9.321517 -4.469666
v -1.311300 -9.941269 -0.628602
v 1.778392 -10.574258 3.210967
v 4.821599 -11.206800 7.056322
v 7.864808 -11.839342 10.901679
v 10.743374 -12.457929 15.264441
v 13.490499 -13.065372 20.040260
vt 0.100000 0.000000
vt 0.000000 0.100000
vt 0.000000 0.000000
vt 0.200000 0.000000
vt 0.100000 0.100000
vt 0.300000 0.000000
vt 0.200000 0.100000
vt 0.400000 0.000000
vt 0.300000 0.100000
vt 0.500000 0.000000
vt 0.400000 0.100000
vt 0.600000 0.000000
vt 0.500000 0.100000
vt 0.700000 0.000000
vt 0.600000 0.100000
vt 0.800000 0.100000
vt 0.700000 0.100000
vt 0.900000 0.000000
vt 0.800000 0.000000
vt 1.000000 0.000000
vt 0.900000 0.100000
vt 0.000000 0.200000
vt 0.100000 0.200000
vt 0.200000 0.200000
vt 0.300000 0.200000
vt 0.500000 0.200000
vt 0.400000 0.200000
vt 0.600000 0.200000
vt 0.700000 0.200000
vt 0.800000 0.200000
vt 1.000000 0.200000
vt 0.900000 0.200000
vt 0.000000 0.300000
vt 0.100000 0.300000
vt 0.200000 0.300000
vt 0.300000 0.300000
vt 0.500000 0.300000
vt 0.400000 0.300000
vt 0.700000 0.300000
vt 0.600000 0.300000
vt 0.800000 0.300000
vt 0.900000 0.300000
vt 0.000000 0.400000
vt 0.100000 0.400000
vt 0.200000 0.400000
vt 0.300000 0.400000
vt 0.500000 0.400000
vt 0.400000 0.400000
vt 0.600000 0.400000
vt 0.700000 0.400000
vt 0.800000 0.400000
vt 1.000000 0.300000
vt 0.900000 0.400000
vt 0.000000 0.500000
vt 0.100000 0.500000
vt 0.200000 0.500000
vt 0.300000 0.500000
vt 0.400000 0.500000
vt 0.500000 0.500000
vt 0.700000 0.500000
vt 0.600000 0.500000
vt 0.800000 0.500000
vt 0.900000 0.500000
vt 1.000000 0.500000
vt 0.000000 0.600000
vt 0.100000 0.600000
vt 0.200000 0.600000
vt 0.300000 0.600000
vt 0.400000 0.600000
vt 0.500000 0.600000
vt 0.700000 0.600000
vt 0.600000 0.600000
vt 0.800000 0.600000
vt 0.900000 0.600000
vt 1.000000 0.600000
vt 0.000000 0.700000
vt 0.100000 0.700000
vt 0.200000 0.700000
vt 0.300000 0.700000
vt 0.400000 0.700000
vt 0.600000 0.700000
vt 0.500000 0.700000
vt 0.700000 0.700000
vt 0.800000 0.700000
vt 0.900000 0.700000
vt 1.000000 0.700000
vt 0.000000 0.800000
vt 0.100000 0.800000
vt 0.200000 0.800000
vt 0.300000 0.800000
vt 0.400000 0.800000
vt 0.600000 0.800000
vt 0.500000 0.800000
vt 0.700000 0.800000
vt 0.800000 0.800000
vt 0.900000 0.800000
vt 1.000000 0.800000
vt 0.000000 0.900000
vt 0.100000 0.900000
vt 0.200000 0.900000
vt 0.300000 0.900000
vt 0.400000 0.900000
vt 0.500000 0.900000
vt 0.700000 0.900000
vt 0.600000 0.900000
vt 0.800000 0.900000
vt 0.900000 0.900000
vt 1.000000 0.900000
vt 0.000000 1.000000
vt 0.100000 1.000000
vt 0.200000 1.000000
vt 0.300000 1.000000
vt 0.400000 1.000000
vt 0.500000 1.000000
vt 0.700000 1.000000
vt 0.600000 1.000000
vt 0.900000 1.000000
vt 0.800000 1.000000
vt 1.000000 1.000000
vt 1.000000 0.100000
vt 1.000000 0.400000
vn 0.1044 0.9652 -0.2397
vn 0.2519 0.9310 -0.2641
vn 0.4748 0.8227 -0.3125
vn 0.0057 0.9919 -0.1271
vn -0.1273 0.9831 -0.1312
vn -0.0262 0.9986 -0.0461
vn -0.1626 0.9867 0.0011
vn -0.3306 0.9428 0.0416
vn -0.2378 0.9707 0.0331
vn -0.5017 0.8552 0.1300
vn -0.3771 0.9249 0.0493
vn -0.1082 0.9870 0.1189
vn -0.3974 0.9072 0.1381
vn -0.1622 0.9741 0.1578
vn -0.1484 0.9762 0.1582
vn 0.0018 0.9793 0.2022
vn -0.1508 0.9702 0.1896
vn 0.0829 0.9893 0.1197
vn -0.1449 0.9760 0.1627
vn 0.4312 0.9000 0.0638
vn 0.1589 0.9755 0.1521
vn -0.1335 0.9592 -0.2492
vn -0.0655 0.9637 -0.2586
vn -0.0479 0.9883 -0.1446
vn -0.1812 0.9693 -0.1659
vn -0.0464 0.9939 0.0999
vn -0.0497 0.9952 -0.0841
vn 0.0593 0.9890 0.1352
vn 0.2259 0.9556 0.1892
vn 0.2480 0.9487 0.1963
vn 0.3881 0.9003 0.1971
vn 0.3111 0.9420 0.1262
vn 0.1464 0.8518 -0.5031
vn 0.1900 0.8801 -0.4350
vn 0.0730 0.9266 -0.3688
vn -0.0552 0.9338 -0.3534
vn 0.3681 0.9295 0.0254
vn 0.4049 0.8630 -0.3022
vn 0.2646 0.9582 0.1085
vn 0.3060 0.9517 0.0266
vn 0.2535 0.9616 0.1048
vn 0.4755 0.8664 0.1523
vn 0.0583 0.9109 -0.4085
vn 0.0655 0.9295 -0.3629
vn 0.0521 0.9159 -0.3981
vn 0.1059 0.8642 -0.4918
vn 0.5911 0.7816 -0.1991
vn 0.6409 0.4712 -0.6060
vn 0.4268 0.8924 -0.1462
vn 0.4328 0.9014 0.0153
vn 0.5177 0.8528 0.0683
vn 0.4253 0.8783 0.2185
vn 0.6429 0.7621 0.0765
vn 0.1288 0.8909 -0.4355
vn 0.3109 0.8133 -0.4918
vn 0.3897 0.7190 -0.5754
vn 0.4414 0.5344 -0.7208
vn 0.7051 0.2816 -0.6508
vn 0.6560 0.5679 -0.4971
vn 0.7164 0.6799 -0.1566
vn 0.6742 0.6299 -0.3856
vn 0.7214 0.6893 -0.0666
vn 0.6990 0.7137 0.0453
vn 0.8634 0.4825 -0.1472
vn 0.3066 0.8148 -0.4921
vn 0.5432 0.6423 -0.5408
vn 0.5752 0.5151 -0.6354
vn 0.5650 0.3835 -0.7306
vn 0.7107 0.1588 -0.6854
vn 0.7163 0.2504 -0.6513
vn 0.8261 0.4640 -0.3199
vn 0.7841 0.2565 -0.5651
vn 0.7576 0.6332 -0.1582
vn 0.7013 0.7123 0.0272
vn 0.7508 0.6604 0.0146
vn 0.3167 0.8588 -0.4026
vn 0.5239 0.7067 -0.4756
vn 0.6260 0.5031 -0.5959
vn 0.6181 0.3673 -0.6951
vn 0.7254 0.0269 -0.6878
vn 0.7752 0.0022 -0.6317
vn 0.7293 0.0495 -0.6824
vn 0.8372 0.2226 -0.4996
vn 0.8330 0.4414 -0.3337
vn 0.8167 0.5584 -0.1455
vn 0.6986 0.7107 0.0833
vn 0.4195 0.8254 -0.3777
vn 0.6310 0.6248 -0.4599
vn 0.6677 0.4836 -0.5659
vn 0.6839 0.3532 -0.6384
vn 0.7619 0.0860 -0.6420
vn 0.7589 -0.0411 -0.6499
vn 0.7391 0.0487 -0.6719
vn 0.8062 0.0783 -0.5865
vn 0.8528 0.1314 -0.5055
vn 0.8992 0.3079 -0.3108
vn 0.7743 0.6315 -0.0412
vn 0.7010 0.5004 -0.5082
vn 0.7649 0.3749 -0.5237
vn 0.7307 0.3545 -0.5835
vn 0.7612 0.2122 -0.6128
vn 0.7821 0.1159 -0.6123
vn 0.7563 0.0414 -0.6529
vn 0.7838 -0.0341 -0.6201
vn 0.7689 -0.0513 -0.6374
vn 0.8242 -0.0347 -0.5653
vn 0.8899 0.1765 -0.4206
vn 0.8610 0.4345 -0.2643
vn 0.7908 0.2041 -0.5771
vn 0.7976 0.2292 -0.5580
vn 0.7492 0.2560 -0.6109
vn 0.7924 0.0607 -0.6070
vn 0.7786 0.1334 -0.6131
vn 0.7710 0.0279 -0.6362
vn 0.7780 -0.0591 -0.6254
vn 0.7756 -0.0586 -0.6286
vn 0.8703 0.1549 -0.4675
vn 0.8038 -0.0645 -0.5915
vn 0.8649 0.3135 -0.3921
vn 0.4251 0.9005 0.0915
vn 0.6585 0.7524 0.0130
s 1
f 2/1/1 12/2/2 1/3/3
f 3/4/4 13/5/5 2/1/1
f 4/6/6 14/7/7 3/4/4
f 5/8/8 15/9/9 4/6/6
f 6/10/10 16/11/11 5/8/8
f 7/12/12 17/13/13 6/10/10
f 8/14/14 18/15/15 7/12/12
f 8/14/14 20/16/16 19/17/17
f 10/18/18 20/16/16 9/19/19
f 11/20/20 21/21/21 10/18/18
f 13/5/5 23/22/22 12/2/2
f 14/7/7 24/23/23 13/5/5
f 15/9/9 25/24/24 14/7/7
f 16/11/11 26/25/25 15/9/9
f 16/11/11 28/26/26 27/27/27
f 18/15/15 28/26/26 17/13/13
f 19/17/17 29/28/28 18/15/15
f 20/16/16 30/29/29 19/17/17
f 21/21/21 31/30/30 20/16/16
f 21/21/21 33/31/31 32/32/32
f 24/23/23 34/33/33 23/22/22
f 25/24/24 35/34/34 24/23/23
f 26/25/25 36/35/35 25/24/24
f 27/27/27 37/36/36 26/25/25
f 27/27/27 39/37/37 38/38/38
f 29/28/28 39/37/37 28/26/26
f 29/28/28 41/39/39 40/40/40
f 31/30/30 41/39/39 30/29/29
f 32/32/32 42/41/41 31/30/30
f 33/31/31 43/42/42 32/32/32
f 35/34/34 45/43/43 34/33/33
f 36/35/35 46/44/44 35/34/34
f 37/36/36 47/45/45 36/35/35
f 38/38/38 48/46/46 37/36/36
f 38/38/38 50/47/47 49/48/48
f 40/40/40 50/47/47 39/37/37
f 41/39/39 51/49/49 40/40/40
f 42/41/41 52/50/50 41/39/39
f 43/42/42 53/51/51 42/41/41
f 44/52/52 54/53/53 43/42/42
f 46/44/44 56/54/54 45/43/43
f 47/45/45 57/55/55 46/44/44
f 48/46/46 58/56/56 47/45/45
f 49/48/48 59/57/57 48/46/46
f 50/47/47 60/58/58 49/48/48
f 51/49/49 61/59/59 50/47/47
f 51/49/49 63/60/60 62/61/61
f 52/50/50 64/62/62 63/60/60
f 53/51/51 65/63/63 64/62/62
f 54/53/53 66/64/64 65/63/63
f 57/55/55 67/65/65 56/54/54
f 58/56/56 68/66/66 57/55/55
f 59/57/57 69/67/67 58/56/56
f 60/58/58 70/68/68 59/57/57
f 61/59/59 71/69/69 60/58/58
f 62/61/61 72/70/70 61/59/59
f 62/61/61 74/71/71 73/72/72
f 63/60/60 75/73/73 74/71/71
f 64/62/62 76/74/74 75/73/73
f 65/63/63 77/75/75 76/74/74
f 68/66/66 78/76/76 67/65/65
f 69/67/67 79/77/77 68/66/66
f 70/68/68 80/78/78 69/67/67
f 71/69/69 81/79/79 70/68/68
f 72/70/70 82/80/80 71/69/69
f 72/70/70 84/81/81 83/82/82
f 73/72/72 85/83/83 84/81/81
f 74/71/71 86/84/84 85/83/83
f 75/73/73 87/85/85 86/84/84
f 76/74/74 88/86/86 87/85/85
f 79/77/77 89/87/87 78/76/76
f 80/78/78 90/88/88 79/77/77
f 81/79/79 91/89/89 80/78/78
f 82/80/80 92/90/90 81/79/79
f 83/82/82 93/91/91 82/80/80
f 83/82/82 95/92/92 94/93/93
f 84/81/81 96/94/94 95/92/92
f 85/83/83 97/95/95 96/94/94
f 86/84/84 98/96/96 97/95/95
f 87/85/85 99/97/97 98/96/96
f 90/88/88 100/98/98 89/87/87
f 91/89/89 101/99/99 90/88/88
f 92/90/90 102/100/100 91/89/89
f 93/91/91 103/101/101 92/90/90
f 94/93/93 104/102/102 93/91/91
f 95/92/92 105/103/103 94/93/93
f 95/92/92 107/104/104 106/105/105
f 96/94/94 108/106/106 107/104/104
f 97/95/95 109/107/107 108/106/106
f 98/96/96 110/108/108 109/107/107
f 101/99/99 111/109/109 100/98/98
f 102/100/100 112/110/110 101/99/99
f 103/101/101 113/111/111 102/100/100
f 104/102/102 114/112/112 103/101/101
f 105/103/103 115/113/113 104/102/102
f 106/105/105 116/114/114 105/103/103
f 106/105/105 118/115/115 117/116/116
f 108/106/106 118/115/115 107/104/104
f 108/106/106 120/117/117 119/118/118
f 109/107/107 121/119/119 120/117/117
f 2/1/1 13/5/5 12/2/2
f 3/4/4 14/7/7 13/5/5
f 4/6/6 15/9/9 14/7/7
f 5/8/8 16/11/11 15/9/9
f 6/10/10 17/13/13 16/11/11
f 7/12/12 18/15/15 17/13/13
f 8/14/14 19/17/17 18/15/15
f 8/14/14 9/19/19 20/16/16
f 10/18/18 21/21/21 20/16/16
f 11/20/20 22/120/120 21/21/21
f 13/5/5 24/23/23 23/22/22
f 14/7/7 25/24/24 24/23/23
f 15/9/9 26/25/25 25/24/24
f 16/11/11 27/27/27 26/25/25
f 16/11/11 17/13/13 28/26/26
f 18/15/15 29/28/28 28/26/26
f 19/17/17 30/29/29 29/28/28
f 20/16/16 31/30/30 30/29/29
f 21/21/21 32/32/32 31/30/30
f 21/21/21 22/120/120 33/31/31
f 24/23/23 35/34/34 34/33/33
f 25/24/24 36/35/35 35/34/34
f 26/25/25 37/36/36 36/35/35
f 27/27/27 38/38/38 37/36/36
f 27/27/27 28/26/26 39/37/37
f 29/28/28 40/40/40 39/37/37
f 29/28/28 30/29/29 41/39/39
f 31/30/30 42/41/41 41/39/39
f 32/32/32 43/42/42 42/41/41
f 33/31/31 44/52/52 43/42/42
f 35/34/34 46/44/44 45/43/43
f 36/35/35 47/45/45 46/44/44
f 37/36/36 48/46/46 47/45/45
f 38/38/38 49/48/48 48/46/46
f 38/38/38 39/37/37 50/47/47
f 40/40/40 51/49/49 50/47/47
f 41/39/39 52/50/50 51/49/49
f 42/41/41 53/51/51 52/50/50
f 43/42/42 54/53/53 53/51/51
f 44/52/52 55/121/121 54/53/53
f 46/44/44 57/55/55 56/54/54
f 47/45/45 58/56/56 57/55/55
f 48/46/46 59/57/57 58/56/56
f 49/48/48 60/58/58 59/57/57
f 50/47/47 61/59/59 60/58/58
f 51/49/49 62/61/61 61/59/59
f 51/49/49 52/50/50 63/60/60
f 52/50/50 53/51/51 64/62/62
f 53/51/51 54/53/53 65/63/63
f 54/53/53 55/121/121 66/64/64
f 57/55/55 68/66/66 67/65/65
f 58/56/56 69/67/67 68/66/66
f 59/57/57 70/68/68 69/67/67
f 60/58/58 71/69/69 70/68/68
f 61/59/59 72/70/70 71/69/69
f 62/61/61 73/72/72 72/70/70
f 62/61/61 63/60/60 74/71/71
f 63/60/60 64/62/62 75/73/73
f 64/62/62 65/63/63 76/74/74
f 65/63/63 66/64/64 77/75/75
f 68/66/66 79/77/77 78/76/76
f 69/67/67 80/78/78 79/77/77
f 70/68/68 81/79/79 80/78/78
f 71/69/69 82/80/80 81/79/79
f 72/70/70 83/82/82 82/80/80
f 72/70/70 73/72/72 84/81/81
f 73/72/72 74/71/71 85/83/83
f 74/71/71 75/73/73 86/84/84
f 75/73/73 76/74/74 87/85/85
f 76/74/74 77/75/75 88/86/86
f 79/77/77 90/88/88 89/87/87
f 80/78/78 91/89/89 90/88/88
f 81/79/79 92/90/90 91/89/89
f 82/80/80 93/91/91 92/90/90
f 83/82/82 94/93/93 93/91/91
f 83/82/82 84/81/81 95/92/92
f 84/81/81 85/83/83 96/94/94
f 85/83/83 86/84/84 97/95/95
f 86/84/84 87/85/85 98/96/96
f 87/85/85 88/86/86 99/97/97
f 90/88/88 101/99/99 100/98/98
f 91/89/89 102/100/100 101/99/99
f 92/90/90 103/101/101 102/100/100
f 93/91/91 104/102/102 103/101/101
f 94/93/93 105/103/103 104/102/102
f 95/92/92 106/105/105 105/103/103
f 95/92/92 96/94/94 107/104/104
f 96/94/94 97/95/95 108/106/106
f 97/95/95 98/96/96 109/107/107
f 98/96/96 99/97/97 110/108/108
f 101/99/99 112/110/110 111/109/109
f 102/100/100 113/111/111 112/110/110
f 103/101/101 114/112/112 113/111/111
f 104/102/102 115/113/113 114/112/112
f 105/103/103 116/114/114 115/113/113
f 106/105/105 117/116/116 116/114/114
f 106/105/105 107/104/104 118/115/115
f 108/106/106 119/118/118 118/115/115
f 108/106/106 109/107/107 120/117/117
f 109/107/107 110/108/108 121/119/119
